<svg width="75" height="68" viewBox="0 0 75 68" fill="none" xmlns="http://www.w3.org/2000/svg">
<path d="M17.5 34.4408L21.7577 45.9469L21.8375 46.1626L22.0531 46.2423L33.5592 50.5L22.0531 54.7577L21.8375 54.8375L21.7577 55.0531L17.5 66.5592L13.2423 55.0531L13.1626 54.8375L12.9469 54.7577L1.44077 50.5L12.9469 46.2423L13.1626 46.1626L13.2423 45.9469L17.5 34.4408Z" fill="#BCEC30" stroke="#202027"/>
<path d="M64.5 1.44077L66.867 7.83757L66.9468 8.05319L67.1624 8.13297L73.5592 10.5L67.1624 12.867L66.9468 12.9468L66.867 13.1624L64.5 19.5592L62.133 13.1624L62.0532 12.9468L61.8376 12.867L55.4408 10.5L61.8376 8.13297L62.0532 8.05319L62.133 7.83757L64.5 1.44077Z" stroke="#202027"/>
</svg>
