<svg width="70" height="64" viewBox="0 0 70 64" fill="none" xmlns="http://www.w3.org/2000/svg">
<path d="M9 1.44077L10.9619 6.7427L11.0417 6.95832L11.2573 7.03811L16.5592 9L11.2573 10.9619L11.0417 11.0417L10.9619 11.2573L9 16.5592L7.03811 11.2573L6.95832 11.0417L6.7427 10.9619L1.44077 9L6.7427 7.03811L6.95832 6.95832L7.03811 6.7427L9 1.44077Z" fill="#BCEC30" stroke="#202027"/>
<path d="M50.5 24.506L55.2951 38.1291L55.3714 38.3458L55.5855 38.4291L68.6209 43.5L55.5855 48.5709L55.3714 48.6542L55.2951 48.8709L50.5 62.494L45.7049 48.8709L45.6286 48.6542L45.4145 48.5709L32.3791 43.5L45.4145 38.4291L45.6286 38.3458L45.7049 38.1291L50.5 24.506Z" stroke="#202027"/>
</svg>
