<svg width="1075" height="1132" viewBox="0 0 1075 1132" fill="none" xmlns="http://www.w3.org/2000/svg">
<path d="M241.793 324L318 412.38L1 487" stroke="#202027" stroke-linecap="round"/>
<path d="M708.682 382.406C718.111 385.031 980.516 495.965 980.516 495.965L702.111 525.848L877.994 751.661L630.036 597.413L604.772 858.856L534.884 583.531L301.938 714.493L462.405 522.266L177.63 509.289L445.302 429.027L246.404 199.959L526.036 331.504L590.031 77.6903L618.768 332.048L873.48 156.602L708.682 382.406Z" fill="#BCEC30" stroke="#202027" stroke-miterlimit="10" stroke-linecap="round"/>
<path d="M232.082 588H356L214 767" stroke="#202027" stroke-linecap="round"/>
<path d="M372 792.046L485.76 713L591.882 1131" stroke="#202027" stroke-linecap="round"/>
<path d="M450.159 802L394 860.765L474 928L450.159 802Z" fill="#BCEC30" stroke="#202027" stroke-linecap="round"/>
<path d="M492 997L526 1121" stroke="#202027" stroke-linecap="round"/>
</svg>
