<svg width="128" height="82" viewBox="0 0 128 82" fill="none" xmlns="http://www.w3.org/2000/svg">
<path d="M28.5 26.4408L35.7287 45.9759L35.8084 46.1916L36.0241 46.2713L55.5592 53.5L36.0241 60.7287L35.8084 60.8084L35.7287 61.0241L28.5 80.5592L21.2713 61.0241L21.1916 60.8084L20.9759 60.7287L1.44077 53.5L20.9759 46.2713L21.1916 46.1916L21.2713 45.9759L28.5 26.4408Z" fill="#BCEC30" stroke="#202027"/>
<path d="M110.5 1.44077L114.758 12.9469L114.837 13.1626L115.053 13.2423L126.559 17.5L115.053 21.7577L114.837 21.8375L114.758 22.0531L110.5 33.5592L106.242 22.0531L106.163 21.8375L105.947 21.7577L94.4408 17.5L105.947 13.2423L106.163 13.1626L106.242 12.9469L110.5 1.44077Z" stroke="#202027"/>
</svg>
