<svg width="148" height="113" viewBox="0 0 148 113" fill="none" xmlns="http://www.w3.org/2000/svg">
<path d="M18.5 1.44077L23.0278 13.6768L23.1075 13.8925L23.3232 13.9722L35.5592 18.5L23.3232 23.0278L23.1075 23.1075L23.0278 23.3232L18.5 35.5592L13.9722 23.3232L13.8925 23.1075L13.6768 23.0278L1.44077 18.5L13.6768 13.9722L13.8925 13.8925L13.9722 13.6768L18.5 1.44077Z" fill="#BCEC30" stroke="#202027"/>
<path d="M106.5 31.4408L117.24 60.4648L117.32 60.6804L117.535 60.7602L146.559 71.5L117.535 82.2398L117.32 82.3196L117.24 82.5352L106.5 111.559L95.7602 82.5352L95.6804 82.3196L95.4648 82.2398L66.4408 71.5L95.4648 60.7602L95.6804 60.6804L95.7602 60.4648L106.5 31.4408Z" stroke="#202027"/>
</svg>
