<svg width="139" height="89" viewBox="0 0 139 89" fill="none" xmlns="http://www.w3.org/2000/svg">
<path d="M104.5 1.44077L113.349 25.3554L113.429 25.571L113.645 25.6508L137.559 34.5L113.645 43.3492L113.429 43.429L113.349 43.6446L104.5 67.5592L95.6508 43.6446L95.571 43.429L95.3554 43.3492L71.4408 34.5L95.3554 25.6508L95.571 25.571L95.6508 25.3554L104.5 1.44077Z" stroke="#BCEC30"/>
<path d="M20.5 49.4408L25.5679 63.1367L25.6477 63.3523L25.8633 63.4321L39.5592 68.5L25.8633 73.5679L25.6477 73.6477L25.5679 73.8633L20.5 87.5592L15.4321 73.8633L15.3523 73.6477L15.1367 73.5679L1.44077 68.5L15.1367 63.4321L15.3523 63.3523L15.4321 63.1367L20.5 49.4408Z" stroke="#BCEC30"/>
</svg>
