<svg width="567" height="568" viewBox="0 0 567 568" fill="none" xmlns="http://www.w3.org/2000/svg">
<path d="M311.569 185.338L311.783 185.897L312.295 185.587L479.842 84.2785L380.534 253.019L380.23 253.534L380.791 253.742L564.461 321.57L370.617 349.135L370.025 349.22L370.213 349.787L431.699 535.677L289.288 401.31L288.853 400.9L288.526 401.401L181.527 565.373L197.787 370.254L197.837 369.658L197.242 369.715L2.33088 388.295L165.018 279.354L165.515 279.021L165.1 278.591L29.0482 137.788L215.656 197.059L216.226 197.24L216.303 196.646L241.561 2.48796L311.569 185.338Z" stroke="#BCEC30"/>
</svg>
