<svg width="119" height="109" viewBox="0 0 119 109" fill="none" xmlns="http://www.w3.org/2000/svg">
<path d="M83.6755 37.7028L90.2007 62.2974L90.2597 62.5196L90.4667 62.6195L113.385 73.6756L88.7902 80.2008L88.568 80.2598L88.4681 80.4669L77.412 103.385L70.8868 78.7903L70.8278 78.5681L70.6207 78.4682L47.7026 67.4121L72.2973 60.8869L72.5195 60.8279L72.6194 60.6209L83.6755 37.7028Z" stroke="#BCEC30"/>
<path d="M21.5955 3.5971L24.4145 15.5957L24.4671 15.8195L24.6712 15.9252L35.6147 21.5956L23.6161 24.4146L23.3923 24.4671L23.2866 24.6713L17.6162 35.6148L14.7972 23.6162L14.7447 23.3924L14.5405 23.2866L3.59704 17.6163L15.5956 14.7973L15.8194 14.7447L15.9252 14.5406L21.5955 3.5971Z" stroke="#BCEC30"/>
</svg>
