<svg width="75" height="112" viewBox="0 0 75 112" fill="none" xmlns="http://www.w3.org/2000/svg">
<path d="M18.4367 2.92177L21.2175 13.4032L21.2765 13.6255L21.4836 13.7254L31.2505 18.4371L20.7691 21.218L20.5469 21.2769L20.447 21.484L15.7352 31.251L12.9544 20.7695L12.8954 20.5473L12.6883 20.4474L2.92137 15.7356L13.4028 12.9548L13.6251 12.8958L13.7249 12.6887L18.4367 2.92177Z" stroke="#BCEC30"/>
<path d="M47.2217 56.0258L52.3236 75.2556L52.3826 75.4778L52.5896 75.5777L70.5086 84.2221L51.2788 89.324L51.0566 89.3829L50.9567 89.59L42.3123 107.509L37.2104 88.2791L37.1514 88.0569L36.9443 87.957L19.0254 79.3126L38.2552 74.2107L38.4774 74.1518L38.5773 73.9447L47.2217 56.0258Z" stroke="#BCEC30"/>
</svg>
